<svg width="80" height="38" viewBox="0 0 80 38" fill="none" xmlns="http://www.w3.org/2000/svg">
<g clip-path="url(#clip0_369_336)">
<path d="M42.7915 12.8281V19.8706C42.7915 20.3914 42.8072 20.8888 42.8464 21.363V14.6626C42.8464 14.033 42.8307 13.4189 42.7915 12.8281Z" fill="black"/>
<path d="M79.5 0.5V19.0311C79.5 22.3113 79.0609 25.1252 78.1982 27.4805C77.3356 29.8279 76.0887 31.7401 74.4733 33.217C72.85 34.6939 70.9052 35.7744 68.6232 36.4662C66.349 37.1502 63.8004 37.5 60.9773 37.5H55.6683C52.8451 37.5 50.2965 37.1502 48.0145 36.4662C46.0462 35.8676 44.3209 34.9815 42.8466 33.7922C42.6192 33.6134 42.3918 33.4191 42.1722 33.217C40.5568 31.7401 39.3099 29.8279 38.4473 27.4805C37.7494 25.5838 37.3337 23.3996 37.2004 20.9044V14.0485C37.2004 13.5899 37.1847 13.1468 37.1455 12.7349C37.0044 10.9315 36.5339 9.57122 35.734 8.64622C34.7537 7.50357 33.4363 6.93613 31.7816 6.93613C30.127 6.93613 28.7389 7.41029 27.8528 8.36639C26.9666 9.31471 26.1668 11.1181 25.4531 13.7687L22.5203 24.4023C21.5008 28.0557 20.1441 30.8851 18.4503 32.8828C16.7564 34.8805 14.3332 35.8754 11.1651 35.8754C7.99692 35.8754 5.44044 34.6939 3.46426 32.3231C1.48809 29.9523 0.5 26.3378 0.5 21.4874V1.89916H6.14622V22.2181C6.14622 24.9076 6.61674 26.7576 7.55777 27.7836C8.49881 28.8097 9.60453 29.3227 10.8828 29.3227C12.3571 29.3227 13.502 28.8485 14.3332 27.9002C15.1566 26.9441 15.933 25.2029 16.6466 22.6689L19.6971 12.0275C20.748 8.33529 22.1517 5.49034 23.9004 3.49265C25.6492 1.50273 28.088 0.5 31.217 0.5C33.4755 0.5 35.4517 0.989706 37.1455 1.96912C38.0709 2.48992 38.91 3.17395 39.655 3.9979C41.4978 6.01891 42.5486 8.96492 42.7917 12.8282V19.8706C42.7917 20.3914 42.8074 20.8889 42.8466 21.363C43.0584 24.4645 43.9759 26.7109 45.5913 28.0945C47.4499 29.7036 50.2808 30.5042 54.0842 30.5042H62.5535C66.3569 30.5042 69.1878 29.7036 71.0542 28.0945C72.9206 26.4933 73.8459 23.7494 73.8459 19.8706V0.5H79.5Z" fill="black"/>
<path d="M37.1455 12.7349V19.0311C37.1455 19.6763 37.1612 20.2981 37.2004 20.9044V14.0485C37.2004 13.5899 37.1847 13.1468 37.1455 12.7349Z" fill="black"/>
</g>
<defs>
<clipPath id="clip0_369_336">
<rect width="79" height="37" fill="white" transform="translate(0.5 0.5)"/>
</clipPath>
</defs>
</svg>
